<?xml version="1.0" encoding="utf-8"?>
<svg xmlns="http://www.w3.org/2000/svg" xmlns:xlink="http://www.w3.org/1999/xlink" style="margin: auto; display: block; shape-rendering: auto;" width="100px" height="100px" viewBox="0 0 100 100" preserveAspectRatio="xMidYMid">
<g transform="translate(50 50)">
<g>
<animateTransform attributeName="transform" type="rotate" values="0;18.94736842105263" keyTimes="0;1" dur="0.1s" repeatCount="indefinite"></animateTransform><path d="M28.844410203711913 -3 L36.84441020371192 -3 L36.84441020371192 3 L28.844410203711913 3 A29 29 0 0 1 28.255638904970496 6.52831295756551 L28.255638904970496 6.52831295756551 L35.82217683857557 9.125908711202978 L33.87398002334747 14.800812161406785 L26.307442089742395 12.203216407769318 A29 29 0 0 1 24.604930699464756 15.34918190896625 L24.604930699464756 15.34918190896625 L30.918054774635905 20.26288361048359 L27.2327784984979 24.99772666686195 L20.91965442332675 20.084024965344607 A29 29 0 0 1 18.287896467835555 22.506728833433968 L18.287896467835555 22.506728833433968 L22.663481732814972 29.204060659534196 L17.640482863239804 32.485749608268755 L13.264897598260387 25.788417782168526 A29 29 0 0 1 9.98908488796525 27.22532246091907 L9.98908488796525 27.22532246091907 L11.952968785091644 34.98052458843372 L6.136567189455663 36.45343751127851 L4.172683292329269 28.698235383763862 A29 29 0 0 1 0.607800963862016 28.99362995535965 L0.607800963862016 28.99362995535965 L-0.05283379991664228 36.96630589941301 L-6.032340757956659 36.47082982657901 L-5.371705994178001 28.498153882525656 A29 29 0 0 1 -8.839347625679325 27.62002776161525 L-8.839347625679325 27.62002776161525 L-12.05291102290308 34.946214374855714 L-17.547550982833428 32.5360418269379 L-14.333987585609673 25.209855213697438 A29 29 0 0 1 -17.328615743368164 23.25336699101214 L-17.328615743368164 23.25336699101214 L-22.74686831637409 29.139158276397193 L-27.16121178041289 25.075468846642742 L-21.74295920740696 19.18967756125769 A29 29 0 0 1 -23.94005946408602 16.366843093768125 L-23.94005946408602 16.366843093768125 L-30.97584947373793 20.174422238064714 L-33.831533831960385 14.897579730825772 L-26.79574382230847 11.090000586529182 A29 29 0 0 1 -27.957226273573866 7.706717789577559 L-27.957226273573866 7.706717789577559 L-35.84811670079564 9.023474511823432 L-36.83568424248005 3.105306691407087 L-28.94479381525827 1.7885499691612146 A29 29 0 0 1 -28.94479381525827 -1.7885499691612072 L-28.94479381525827 -1.7885499691612072 L-36.83568424248005 -3.105306691407078 L-35.84811670079564 -9.023474511823423 L-27.957226273573866 -7.706717789577552 A29 29 0 0 1 -26.79574382230847 -11.090000586529175 L-26.79574382230847 -11.090000586529175 L-33.831533831960385 -14.897579730825763 L-30.975849473737938 -20.174422238064707 L-23.940059464086026 -16.366843093768118 A29 29 0 0 1 -21.742959207406976 -19.18967756125767 L-21.742959207406976 -19.18967756125767 L-27.16121178041291 -25.07546884664272 L-22.746868316374123 -29.139158276397172 L-17.32861574336819 -23.253366991012122 A29 29 0 0 1 -14.333987585609679 -25.209855213697434 L-14.333987585609679 -25.209855213697434 L-17.547550982833435 -32.53604182693789 L-12.052911022903109 -34.9462143748557 L-8.83934762567935 -27.620027761615244 A29 29 0 0 1 -5.371705994178008 -28.498153882525656 L-5.371705994178008 -28.498153882525656 L-6.0323407579566695 -36.47082982657901 L-0.052833799916665924 -36.96630589941301 L0.607800963861996 -28.99362995535965 A29 29 0 0 1 4.172683292329262 -28.698235383763862 L4.172683292329262 -28.698235383763862 L6.136567189455652 -36.45343751127851 L11.95296878509162 -34.98052458843372 L9.98908488796523 -27.225322460919074 A29 29 0 0 1 13.26489759826038 -25.78841778216853 L13.26489759826038 -25.78841778216853 L17.640482863239793 -32.48574960826876 L22.66348173281495 -29.204060659534207 L18.287896467835537 -22.50672883343398 A29 29 0 0 1 20.919654423326747 -20.08402496534461 L20.919654423326747 -20.08402496534461 L27.232778498497893 -24.997726666861958 L30.9180547746359 -20.262883610483605 L24.60493069946475 -15.349181908966262 A29 29 0 0 1 26.307442089742395 -12.20321640776932 L26.307442089742395 -12.20321640776932 L33.87398002334747 -14.800812161406789 L35.82217683857557 -9.125908711202996 L28.255638904970493 -6.528312957565526 A29 29 0 0 1 28.844410203711913 -2.9999999999999996 M0 -21A21 21 0 1 0 0 21 A21 21 0 1 0 0 -21" fill="#593f40"></path></g></g>
<!-- [ldio] generated by https://loading.io/ --></svg>